<?xml version="1.0" encoding="utf-8"?>
<!-- Generator: Adobe Illustrator 17.0.0, SVG Export Plug-In . SVG Version: 6.00 Build 0)  -->
<!DOCTYPE svg PUBLIC "-//W3C//DTD SVG 1.1//EN" "http://www.w3.org/Graphics/SVG/1.1/DTD/svg11.dtd">
<svg version="1.1" id="Layer_1" xmlns="http://www.w3.org/2000/svg" xmlns:xlink="http://www.w3.org/1999/xlink" x="0px" y="0px"
	 width="100%" height="100%" viewBox="0 0 140.1 26.9" style="enable-background:new 0 0 140.1 26.9;" xml:space="preserve">
<g>
	<circle style="fill:#ED2224;" cx="132.7" cy="13" r="7.4"/>
	<circle style="fill:#4C4C6E;" cx="38.9" cy="1.8" r="1.8"/>
	<path style="fill:#4C4C6E;" d="M3.5,20.1H0.1V6h3.4V20.1z"/>
	<path style="fill:#4C4C6E;" d="M18.7,20.1h-3.4v-7.1c0-1.1,0-2-0.2-2.7c-0.3-1-1-1.6-2.5-1.6c-2.1,0-3.1,1.6-3.1,3.9v7.5H6.2V6h3.4
		v1.8c0.6-1.2,2.2-2.2,4.4-2.2c1.6,0,2.9,0.5,3.9,1.7c0.6,0.9,0.9,2,0.9,4.7V20.1z"/>
	<path style="fill:#4C4C6E;" d="M20.8,13.1c0-4.4,2.4-7.4,6.2-7.4c1.8,0,3.4,0.9,4.1,1.9V0h3.4v20.1h-3.4v-1.5
		c-0.9,1.1-2.2,1.8-4.1,1.8C23.3,20.4,20.8,17.3,20.8,13.1z M27.7,8.6c-2.2,0-3.6,1.7-3.6,4.5c0,2.8,1.4,4.5,3.6,4.5
		c2.1,0,3.6-1.7,3.6-4.5S29.9,8.6,27.7,8.6z"/>
	<path style="fill:#4C4C6E;" d="M40.6,20.1h-3.4V6h3.4V20.1z"/>
	<path style="fill:#4C4C6E;" d="M63,20.1h-3.4V6H63V20.1z"/>
	<path style="fill:#4C4C6E;" d="M74.9,20.2c-0.6,0.1-1.5,0.2-2.5,0.2c-1.4,0-2.8-0.3-3.5-1.2c-0.6-0.7-0.6-1.5-0.6-2.8V8.6h-3V6h3
		V1.7L71.6,0v6h3.3v2.6h-3.3v7.2c0,0.8,0.1,1.2,0.4,1.4c0.3,0.3,0.8,0.4,1.4,0.4c0.6,0,1.1-0.1,1.5-0.1V20.2z"/>
	<path style="fill:#4C4C6E;" d="M77.5,6h3.4v7.5c0,1,0,2,0.4,2.7c0.3,0.7,1,1.2,2.2,1.2c2.1,0,3-1.6,3-3.9V6h3.4v14h-3.4v-1.8
		c-0.7,1.2-2.2,2.2-4.2,2.2c-1.4,0-2.6-0.4-3.5-1.4c-0.9-1-1.2-2-1.2-5.1V6z"/>
	<path style="fill:#4C4C6E;" d="M102,10c-1-0.9-2.3-1.6-4-1.6c-1.3,0-2.3,0.5-2.3,1.4c0,1,1,1.2,2.9,1.6l1.7,0.4
		c2.1,0.5,4,1.3,4,3.9c0,3.2-2.9,4.7-6.1,4.7c-3.4,0-5.6-1.7-6.5-2.9l2.3-2c0.8,1.1,2.2,2.1,4.3,2.1c1.7,0,2.7-0.6,2.7-1.6
		c0-1-0.8-1.2-2.2-1.4l-2.1-0.4c-2.4-0.5-4.4-1.6-4.4-4.1c0-3.1,3-4.4,5.7-4.4c2.8,0,5,1.2,5.9,2.2L102,10z"/>
	<path style="fill:#4C4C6E;" d="M53.4,6v1.5c-0.8-1-2.2-1.9-4.2-1.9c-3.9,0-6.2,3-6.2,7.4c0,4.3,2.4,7,6.2,7c2.5,0,3.7-1.2,4.1-1.8
		h0v1.3c0,1.7-0.4,2.7-1.2,3.2c-0.7,0.4-1.7,0.7-2.9,0.7c-1.2,0-2.3-0.3-3.2-0.8l-1.8,2.8c1.5,0.9,3.2,1.4,5,1.4
		c1.7,0,3.3-0.4,4.6-1.2l0,0c1.1-0.7,1.9-1.6,2.4-2.9c0.3-0.9,0.5-2,0.5-3.2V6H53.4z M50,17.3c-2.3,0-3.6-1.5-3.6-4.3
		c0-2.8,1.3-4.4,3.6-4.4c2.2,0,3.6,1.7,3.6,4.4S52.2,17.3,50,17.3z"/>
	<circle style="fill:#4C4C6E;" cx="61.3" cy="1.8" r="1.8"/>
	<circle style="fill:#4C4C6E;" cx="1.8" cy="1.8" r="1.8"/>
</g>
</svg>
